<svg width="42" height="33" viewBox="0 0 42 33" fill="none" xmlns="http://www.w3.org/2000/svg">
<path d="M26.6647 2.78094H15.2988V23.2191H26.6647V2.78094Z" fill="#FF5A00"/>
<path d="M16.0568 13C16.0568 8.84757 18.0071 5.16214 20.9999 2.78091C18.7974 1.04757 16.019 0 12.9883 0C5.80903 0 0 5.81424 0 13C0 20.1858 5.80903 26 12.9883 26C16.019 26 18.7974 24.9524 20.9999 23.2191C18.0029 20.8715 16.0568 17.1524 16.0568 13Z" fill="#EB001B"/>
<path d="M41.9999 13C41.9999 20.1858 36.1909 26 29.0116 26C25.981 26 23.2026 24.9524 21 23.2191C24.0306 20.8337 25.9431 17.1524 25.9431 13C25.9431 8.84757 23.9928 5.16214 21 2.78091C23.1984 1.04757 25.9768 0 29.0074 0C36.1909 0 41.9999 5.8521 41.9999 13Z" fill="#FB8C00"/>
<path d="M7.61277 32.9277V30.7376C7.61277 29.8999 7.10836 29.3513 6.24247 29.3513C5.80952 29.3513 5.33875 29.4959 5.01509 29.9722C4.76289 29.5724 4.4014 29.3513 3.85916 29.3513C3.49767 29.3513 3.13618 29.4618 2.85036 29.8616V29.4236H2.09375V32.9277H2.85036V30.9928C2.85036 30.3719 3.17401 30.0785 3.67842 30.0785C4.18282 30.0785 4.43502 30.4059 4.43502 30.9928V32.9277H5.19163V30.9928C5.19163 30.3719 5.55312 30.0785 6.01969 30.0785C6.52409 30.0785 6.7763 30.4059 6.7763 30.9928V32.9277H7.61277ZM18.8357 29.4236H17.6084V28.3647H16.8518V29.4236H16.1666V30.1167H16.8518V31.7242C16.8518 32.528 17.1754 33 18.0413 33C18.365 33 18.7265 32.8894 18.9787 32.7448L18.7601 32.0857C18.5415 32.2303 18.2893 32.2685 18.1086 32.2685C17.7471 32.2685 17.6042 32.0474 17.6042 31.6859V30.1167H18.8315V29.4236H18.8357ZM25.2585 29.347C24.8255 29.347 24.5355 29.5682 24.3548 29.8573V29.4193H23.5982V32.9234H24.3548V30.9502C24.3548 30.3676 24.607 30.0359 25.0777 30.0359C25.2207 30.0359 25.4014 30.0742 25.5485 30.1082L25.7671 29.3768C25.6158 29.347 25.4014 29.347 25.2585 29.347ZM15.5529 29.7127C15.1914 29.4576 14.687 29.347 14.1448 29.347C13.2789 29.347 12.703 29.785 12.703 30.4782C12.703 31.0608 13.136 31.3925 13.8926 31.4988L14.2541 31.5371C14.6492 31.6094 14.8678 31.72 14.8678 31.9028C14.8678 32.158 14.5777 32.3408 14.0733 32.3408C13.5689 32.3408 13.1696 32.158 12.9174 31.9751L12.5559 32.5577C12.951 32.8511 13.4933 32.9957 14.0355 32.9957C15.0443 32.9957 15.6244 32.5194 15.6244 31.8646C15.6244 31.2437 15.1536 30.9162 14.4348 30.8057L14.0733 30.7674C13.7497 30.7291 13.4975 30.6568 13.4975 30.4399C13.4975 30.1848 13.7497 30.0402 14.149 30.0402C14.5819 30.0402 15.0149 30.2231 15.2335 30.3336L15.5529 29.7127ZM35.6828 29.347C35.2499 29.347 34.9598 29.5682 34.7791 29.8573V29.4193H34.0225V32.9234H34.7791V30.9502C34.7791 30.3676 35.0313 30.0359 35.5021 30.0359C35.645 30.0359 35.8257 30.0742 35.9729 30.1082L36.1914 29.3853C36.0443 29.347 35.8299 29.347 35.6828 29.347ZM26.0151 31.1756C26.0151 32.2345 26.7381 33 27.8562 33C28.3606 33 28.7221 32.8894 29.0835 32.6002L28.7221 31.9794C28.432 32.2005 28.1462 32.3068 27.8183 32.3068C27.2046 32.3068 26.7717 31.8688 26.7717 31.1756C26.7717 30.5165 27.2046 30.0785 27.8183 30.0444C28.142 30.0444 28.432 30.155 28.7221 30.3719L29.0835 29.751C28.7221 29.4576 28.3606 29.3513 27.8562 29.3513C26.7381 29.347 26.0151 30.1167 26.0151 31.1756ZM33.0137 31.1756V29.4236H32.2571V29.8616C32.0049 29.5341 31.6434 29.3513 31.1726 29.3513C30.1974 29.3513 29.4408 30.1167 29.4408 31.1756C29.4408 32.2345 30.1974 33 31.1726 33C31.677 33 32.0385 32.8171 32.2571 32.4897V32.9277H33.0137V31.1756ZM30.2353 31.1756C30.2353 30.5548 30.6304 30.0444 31.2819 30.0444C31.8956 30.0444 32.3285 30.5207 32.3285 31.1756C32.3285 31.7965 31.8956 32.3068 31.2819 32.3068C30.6346 32.2685 30.2353 31.7923 30.2353 31.1756ZM21.1812 29.347C20.1724 29.347 19.4494 30.0785 19.4494 31.1714C19.4494 32.2685 20.1724 32.9957 21.2191 32.9957C21.7235 32.9957 22.2279 32.8512 22.6272 32.5194L22.2657 31.9709C21.9757 32.192 21.6142 32.3366 21.2569 32.3366C20.7861 32.3366 20.3195 32.1155 20.2102 31.4988H22.7701C22.7701 31.3883 22.7701 31.316 22.7701 31.2054C22.8037 30.0785 22.1522 29.347 21.1812 29.347ZM21.1812 30.0062C21.652 30.0062 21.9757 30.2996 22.0471 30.8439H20.2439C20.3153 30.3719 20.639 30.0062 21.1812 30.0062ZM39.9787 31.1756V28.0372H39.2221V29.8616C38.9699 29.5341 38.6084 29.3513 38.1376 29.3513C37.1624 29.3513 36.4058 30.1167 36.4058 31.1756C36.4058 32.2345 37.1624 33 38.1376 33C38.642 33 39.0035 32.8171 39.2221 32.4897V32.9277H39.9787V31.1756ZM37.2002 31.1756C37.2002 30.5548 37.5954 30.0444 38.2469 30.0444C38.8606 30.0444 39.2935 30.5207 39.2935 31.1756C39.2935 31.7965 38.8606 32.3068 38.2469 32.3068C37.5954 32.2685 37.2002 31.7923 37.2002 31.1756ZM11.8708 31.1756V29.4236H11.1142V29.8616C10.862 29.5341 10.5005 29.3513 10.0297 29.3513C9.05452 29.3513 8.29791 30.1167 8.29791 31.1756C8.29791 32.2345 9.05452 33 10.0297 33C10.5341 33 10.8956 32.8171 11.1142 32.4897V32.9277H11.8708V31.1756ZM9.05872 31.1756C9.05872 30.5548 9.45384 30.0444 10.1054 30.0444C10.7191 30.0444 11.152 30.5207 11.152 31.1756C11.152 31.7965 10.7191 32.3068 10.1054 32.3068C9.45384 32.2685 9.05872 31.7923 9.05872 31.1756Z" fill="#191919"/>
</svg>
